<svg xmlns="http://www.w3.org/2000/svg" width="180" height="68" viewBox="0 0 180 68">
    <g fill="none" fill-rule="evenodd">
        <path fill="#000" d="M13.48 67.99c-.543 0-1.072-.006-1.61-.018-.995-.026-2.176-.084-3.327-.29-1.087-.196-2.053-.515-2.95-.974-.928-.47-1.763-1.078-2.487-1.807-.737-.722-1.343-1.552-1.817-2.482-.461-.898-.777-1.861-.966-2.946-.218-1.196-.273-2.41-.297-3.333C.016 55.764 0 54.517 0 54.517V13.453s.015-1.23.026-1.59c.023-.932.079-2.144.294-3.328.19-1.091.506-2.054.968-2.955.473-.932 1.08-1.766 1.807-2.485.736-.736 1.574-1.345 2.496-1.817C6.506.815 7.47.498 8.535.31 9.733.096 10.949.042 11.874.019L13.48 0h153.03l1.626.026c.913.025 2.128.076 3.309.289 1.072.187 2.043.506 2.974.974.913.467 1.75 1.076 2.478 1.805.728.722 1.338 1.56 1.822 2.496.459.91.772 1.872.953 2.932.206 1.121.27 2.273.309 3.354.005.504.005 1.044.005 1.582.014.667.014 1.301.014 1.941v37.203c0 .646 0 1.276-.014 1.912 0 .578 0 1.107-.007 1.652-.037 1.047-.1 2.198-.304 3.295-.184 1.09-.497 2.054-.962 2.969-.48.923-1.09 1.758-1.808 2.463-.735.743-1.57 1.349-2.49 1.817-.924.469-1.866.78-2.97.978-1.14.207-2.321.262-3.328.29-.521.012-1.067.019-1.598.019l-1.93.003-151.11-.01z"/>
        <path fill="#FFF" fill-rule="nonzero" d="M70 24V14h1.489v8.68H76V24h-6zm9-8c-.534 0-1-.435-1-.991 0-.557.465-1.009 1-1.009.552 0 1 .452 1 1.009 0 .556-.448.991-1 .991zm-1 8v-7h1v7h-1zm3-1.035l.652-.912c.5.497 1.47.953 2.454.953 1.03 0 1.576-.386 1.576-.953 0-.662-.834-.883-1.773-1.077-1.242-.262-2.697-.566-2.697-2.002 0-1.063 1-1.974 2.788-1.974 1.258 0 2.167.414 2.788.953l-.606.87c-.424-.47-1.243-.815-2.167-.815-.924 0-1.5.331-1.5.87 0 .58.788.773 1.697.966 1.273.262 2.788.58 2.788 2.113C87 23.103 85.97 24 84.045 24c-1.227 0-2.303-.345-3.045-1.035zM90.374 24c-1.315 0-1.99-.617-1.99-1.708v-4.263H87v-1.134h1.384V15h1.557v1.895h1.696v1.134H89.94v3.976c0 .488.277.847.813.847.364 0 .692-.13.848-.273l.398.976c-.329.258-.813.445-1.626.445zM93 20.493C93 18.56 94.482 17 96.551 17 98.68 17 100 18.56 100 20.604v.303h-5.606c.103 1.132.983 2.071 2.407 2.071.748 0 1.57-.276 2.098-.787l.617.815c-.705.649-1.703.994-2.847.994C94.556 24 93 22.592 93 20.493zM96.508 18c-1.644 0-2.423 1.083-2.508 2h5c-.034-.889-.763-2-2.492-2zm10.194 6v-4.37c0-1.131-.591-1.499-1.486-1.499-.807 0-1.543.481-1.918.99V24H102v-6.83h1.298v.961c.462-.551 1.385-1.131 2.466-1.131 1.472 0 2.236.764 2.236 2.206V24h-1.298zM118 24c-2.459 0-4-1.574-4-3.507 0-1.92 1.541-3.493 4-3.493 2.475 0 4 1.574 4 3.493 0 1.933-1.525 3.507-4 3.507zm-.5-1c1.617 0 2.5-1.182 2.5-2.507 0-1.311-.883-2.493-2.5-2.493-1.6 0-2.5 1.182-2.5 2.493 0 1.325.9 2.507 2.5 2.507zm11.202 1v-4.37c0-1.131-.591-1.499-1.486-1.499-.807 0-1.543.481-1.918.99V24H124v-6.83h1.298v.961c.462-.551 1.385-1.131 2.466-1.131 1.472 0 2.236.764 2.236 2.206V24h-1.298z"/>
        <path fill="#1ED760" d="M54.123 31.752c-6.566-3.615-17.397-3.948-23.664-2.184-1.007.283-2.072-.243-2.377-1.177-.305-.934.263-1.92 1.27-2.203 7.195-2.025 19.156-1.634 26.715 2.526.905.498 1.202 1.582.666 2.42-.537.84-1.707 1.116-2.61.618zm.64 5.468c-.465.77-1.452 1.01-2.205.538-5.526-3.461-13.951-4.464-20.489-2.442-.847.26-1.743-.226-2-1.088-.256-.864.222-1.775 1.069-2.038 7.468-2.31 16.751-1.191 23.098 2.784.753.473.99 1.479.527 2.246zm-2.955 5.232c-.377.54-1.181.71-1.796.38-4.923-2.63-11.118-3.225-18.414-1.767-.703.14-1.404-.245-1.565-.86-.16-.614.278-1.227.983-1.367 7.985-1.596 14.834-.91 20.358 2.043.616.329.81 1.032.434 1.57zM42.5 14C31.178 14 22 22.954 22 34s9.178 20 20.5 20S63 45.046 63 34s-9.178-20-20.5-20z"/>
        <path fill="#1DD15D" fill-rule="nonzero" d="M155.976 50c-1.109 0-1.976-1.145-1.976-2.47 0-1.385.867-2.53 2.024-2.53 1.109 0 1.976 1.145 1.976 2.47 0 1.385-.867 2.53-2.024 2.53m.024-5c-1.135 0-2 1.133-2 2.533S154.865 50 156 50s2-1.133 2-2.533c0-1.334-.865-2.467-2-2.467m.368 2.91L157 49h-.526l-.58-1.023h-.473V49H155v-3h1c.526 0 .895.34.895.955 0 .477-.21.818-.527.954M156.55 46H156v1h.55c.25 0 .45-.214.45-.5-.05-.357-.2-.5-.45-.5M78.826 38.255c-3.637-.887-4.298-1.496-4.298-2.77 0-1.22 1.157-2.05 2.81-2.05 1.654 0 3.252.61 4.96 1.884.055.055.11.055.166.055.055 0 .11-.055.165-.11l1.764-2.494c.055-.11.055-.222-.056-.332C82.298 30.83 80.04 30 77.393 30c-3.912 0-6.668 2.382-6.668 5.762 0 3.6 2.37 4.93 6.448 5.928 3.472.83 4.078 1.496 4.078 2.659 0 1.33-1.212 2.16-3.086 2.16-2.094 0-3.858-.72-5.787-2.382-.055-.055-.11-.055-.165-.055-.055 0-.11.055-.165.11l-1.984 2.383c-.11.11-.056.222 0 .333 2.26 1.994 5.015 3.102 7.99 3.102C82.299 50 85 47.673 85 44.072c.055-3.102-1.764-4.765-6.173-5.817M94.212 35c-1.807 0-3.285.708-4.544 2.178v-1.634c0-.108-.11-.217-.22-.217H86.22c-.11 0-.219.109-.219.217v18.238c0 .11.11.218.219.218h3.23c.11 0 .219-.109.219-.218v-5.77c1.204 1.36 2.737 2.068 4.544 2.068 3.394 0 6.788-2.559 6.788-7.513C101 37.56 97.606 35 94.212 35M97 43c0 2.359-1.6 4-3.943 4C90.771 47 89 45.256 89 43c0-2.308 1.714-4 4.057-4C95.343 39 97 40.692 97 43M110.028 35c-4.466 0-8.028 3.303-8.028 7.527 0 4.17 3.505 7.473 7.971 7.473 4.523 0 8.028-3.303 8.028-7.527.057-4.17-3.448-7.473-7.971-7.473M110 47c-2.27 0-4-1.95-4-4.529 0-2.58 1.676-4.471 3.946-4.471 2.324 0 4.054 1.949 4.054 4.529S112.324 47 110 47M126.772 34.912h-3.477v-3.688c0-.112-.107-.224-.214-.224h-3.155c-.107 0-.214.112-.214.224v3.688h-1.498c-.107 0-.214.112-.214.223v2.85c0 .112.107.224.214.224h1.498v7.32c0 2.962 1.39 4.471 4.172 4.471 1.123 0 2.086-.224 2.942-.782.053-.056.107-.112.107-.224v-2.682c0-.056-.054-.168-.107-.224-.054-.056-.16-.056-.214 0-.589.336-1.177.447-1.872.447-1.017 0-1.445-.503-1.445-1.564v-6.762h3.477c.107 0 .214-.112.214-.224v-2.85c.054-.111-.053-.223-.214-.223M139.33 35.518v-.429c0-1.285.49-1.875 1.633-1.875.652 0 1.196.107 1.795.322.054 0 .163 0 .217-.054.055-.053.11-.107.11-.214v-2.679c0-.107-.055-.214-.164-.214-.653-.16-1.469-.375-2.666-.375-2.937 0-4.514 1.66-4.514 4.768v.643h-1.523c-.11 0-.218.107-.218.214v2.732c0 .107.109.214.218.214h1.523v10.822c0 .107.108.214.217.214h3.21c.108 0 .217-.107.217-.214V38.679h2.992l4.57 10.821c-.545 1.125-1.034 1.34-1.742 1.34-.543 0-1.142-.161-1.74-.483-.055-.053-.109-.053-.163 0-.055 0-.11.054-.164.107l-1.087 2.357c-.055.108 0 .215.108.322 1.143.59 2.176.857 3.427.857 2.394 0 3.7-1.071 4.841-4.018l5.549-14.143c.054-.053 0-.16 0-.214-.055-.054-.109-.107-.218-.107h-3.318c-.109 0-.163.053-.217.16l-3.427 9.643-3.754-9.642c-.054-.108-.109-.161-.217-.161h-5.494zM131.81 35h-2.632c-.089 0-.178.113-.178.226v14.548c0 .113.09.226.178.226h2.632c.09 0 .178-.113.178-.226V35.226c.045-.113-.044-.226-.178-.226M130.5 29c-1.37 0-2.5.905-2.5 2s1.13 2 2.5 2c1.369 0 2.5-.905 2.5-2s-1.131-2-2.5-2"/>
    </g>
</svg>
